{
  "accessors": [
    {
      "bufferView": 2,
      "componentType": 5126,
      "count": 48,
      "max": [
        -1.340162992477417,
        0.4714440107345581,
        -0.34821799397468567
      ],
      "min": [
        -1.4570839405059814,
        -0.4714440107345581,
        -0.3671779930591583
      ],
      "type": "VEC3"
    },
    {
      "bufferView": 2,
      "byteOffset": 576,
      "componentType": 5126,
      "count": 48,
      "max": [
        0.7920781970024109,
        0.7920141220092773,
        0.9999085664749146
      ],
      "min": [
        -0.792079508304596,
        -0.7920134663581848,
        -0.9999529123306274
      ],
      "type": "VEC3"
    },
    {
      "bufferView": 1,
      "componentType": 5126,
      "count": 48,
      "max": [
        0.0,
        1.0
      ],
      "min": [
        0.0,
        1.0
      ],
      "type": "VEC2"
    },
    {
      "bufferView": 0,
      "componentType": 5125,
      "count": 72,
      "type": "SCALAR"
    },
    {
      "bufferView": 2,
      "byteOffset": 1152,
      "componentType": 5126,
      "count": 1212,
      "max": [
        1.4849599599838257,
        0.5605189800262451,
        -0.17444400489330292
      ],
      "min": [
        -1.491644024848938,
        -0.5605189800262451,
        -0.5889869928359985
      ],
      "type": "VEC3"
    },
    {
      "bufferView": 2,
      "byteOffset": 15696,
      "componentType": 5126,
      "count": 1212,
      "max": [
        1.0,
        1.0,
        1.0
      ],
      "min": [
        -1.0,
        -1.0,
        -1.0
      ],
      "type": "VEC3"
    },
    {
      "bufferView": 1,
      "byteOffset": 384,
      "componentType": 5126,
      "count": 1212,
      "max": [
        0.8194350004196167,
        1.0
      ],
      "min": [
        0.0,
        0.0
      ],
      "type": "VEC2"
    },
    {
      "bufferView": 0,
      "byteOffset": 288,
      "componentType": 5125,
      "count": 2604,
      "type": "SCALAR"
    },
    {
      "bufferView": 2,
      "byteOffset": 30240,
      "componentType": 5126,
      "count": 1232,
      "max": [
        1.1308599710464478,
        0.5739129781723022,
        -0.06494200229644775
      ],
      "min": [
        -1.2387269735336304,
        -0.5739129781723022,
        -0.45077401399612427
      ],
      "type": "VEC3"
    },
    {
      "bufferView": 2,
      "byteOffset": 45024,
      "componentType": 5126,
      "count": 1232,
      "max": [
        0.9996058344841003,
        1.0,
        0.9793817400932312
      ],
      "min": [
        -0.9996465444564819,
        -1.0,
        -1.0
      ],
      "type": "VEC3"
    },
    {
      "bufferView": 1,
      "byteOffset": 10080,
      "componentType": 5126,
      "count": 1232,
      "max": [
        0.875,
        1.0
      ],
      "min": [
        0.0,
        0.0
      ],
      "type": "VEC2"
    },
    {
      "bufferView": 0,
      "byteOffset": 10704,
      "componentType": 5125,
      "count": 2496,
      "type": "SCALAR"
    },
    {
      "bufferView": 2,
      "byteOffset": 59808,
      "componentType": 5126,
      "count": 3976,
      "max": [
        1.461683988571167,
        0.410955011844635,
        -0.7449269890785217
      ],
      "min": [
        0.5107579827308655,
        -0.410955011844635,
        -0.87813800573349
      ],
      "type": "VEC3"
    },
    {
      "bufferView": 2,
      "byteOffset": 107520,
      "componentType": 5126,
      "count": 3976,
      "max": [
        0.9903613328933716,
        0.9999995231628418,
        0.13905839622020721
      ],
      "min": [
        -0.9903636574745178,
        -0.9999995231628418,
        -0.9903917908668518
      ],
      "type": "VEC3"
    },
    {
      "bufferView": 1,
      "byteOffset": 19936,
      "componentType": 5126,
      "count": 3976,
      "max": [
        0.0,
        1.0
      ],
      "min": [
        0.0,
        1.0
      ],
      "type": "VEC2"
    },
    {
      "bufferView": 0,
      "byteOffset": 20688,
      "componentType": 5125,
      "count": 5964,
      "type": "SCALAR"
    },
    {
      "bufferView": 2,
      "byteOffset": 155232,
      "componentType": 5126,
      "count": 1114,
      "max": [
        1.5118160247802734,
        0.5183690190315247,
        -0.17444400489330292
      ],
      "min": [
        -1.518847942352295,
        -0.5183690190315247,
        -0.9786120057106018
      ],
      "type": "VEC3"
    },
    {
      "bufferView": 2,
      "byteOffset": 168600,
      "componentType": 5126,
      "count": 1114,
      "max": [
        1.0,
        1.0,
        0.9999939799308777
      ],
      "min": [
        -1.0,
        -1.0,
        -1.0
      ],
      "type": "VEC3"
    },
    {
      "bufferView": 1,
      "byteOffset": 51744,
      "componentType": 5126,
      "count": 1114,
      "max": [
        0.6251630187034607,
        1.0002130270004272
      ],
      "min": [
        0.0,
        -4.100799560546875e-05
      ],
      "type": "VEC2"
    },
    {
      "bufferView": 0,
      "byteOffset": 44544,
      "componentType": 5125,
      "count": 2490,
      "type": "SCALAR"
    },
    {
      "bufferView": 2,
      "byteOffset": 181968,
      "componentType": 5126,
      "count": 57,
      "max": [
        0.4752430021762848,
        0.4781799912452698,
        -0.6646360158920288
      ],
      "min": [
        -1.136929988861084,
        -0.4781799912452698,
        -0.9786120057106018
      ],
      "type": "VEC3"
    },
    {
      "bufferView": 2,
      "byteOffset": 182652,
      "componentType": 5126,
      "count": 57,
      "max": [
        0.13874290883541107,
        0.9342215061187744,
        -0.3562134802341461
      ],
      "min": [
        -0.31732115149497986,
        -0.9342215061187744,
        -0.9957988262176514
      ],
      "type": "VEC3"
    },
    {
      "bufferView": 1,
      "byteOffset": 60656,
      "componentType": 5126,
      "count": 57,
      "max": [
        0.625,
        1.0
      ],
      "min": [
        0.625,
        0.014163017272949219
      ],
      "type": "VEC2"
    },
    {
      "bufferView": 0,
      "byteOffset": 54504,
      "componentType": 5125,
      "count": 162,
      "type": "SCALAR"
    },
    {
      "bufferView": 2,
      "byteOffset": 183336,
      "componentType": 5126,
      "count": 18,
      "max": [
        -1.346040964126587,
        0.5074570178985596,
        -0.5179290175437927
      ],
      "min": [
        -1.5104069709777832,
        -0.5074570178985596,
        -0.5904939770698547
      ],
      "type": "VEC3"
    },
    {
      "bufferView": 2,
      "byteOffset": 183552,
      "componentType": 5126,
      "count": 18,
      "max": [
        -0.7866982817649841,
        0.6133822798728943,
        -0.06977154314517975
      ],
      "min": [
        -0.9632300138473511,
        -0.6133794784545898,
        -0.2724808156490326
      ],
      "type": "VEC3"
    },
    {
      "bufferView": 1,
      "byteOffset": 61112,
      "componentType": 5126,
      "count": 18,
      "max": [
        0.6219580173492432,
        1.0002130270004272
      ],
      "min": [
        0.5929179787635803,
        -4.100799560546875e-05
      ],
      "type": "VEC2"
    },
    {
      "bufferView": 0,
      "byteOffset": 55152,
      "componentType": 5125,
      "count": 36,
      "type": "SCALAR"
    },
    {
      "bufferView": 2,
      "byteOffset": 183768,
      "componentType": 5126,
      "count": 8,
      "max": [
        1.511396050453186,
        0.5133630037307739,
        -0.704774022102356
      ],
      "min": [
        1.5064409971237183,
        -0.5133630037307739,
        -0.7353190183639526
      ],
      "type": "VEC3"
    },
    {
      "bufferView": 2,
      "byteOffset": 183864,
      "componentType": 5126,
      "count": 8,
      "max": [
        0.9870980381965637,
        4.4028806200913095e-07,
        0.16011831164360046
      ],
      "min": [
        0.9870979189872742,
        -4.402880335874215e-07,
        0.16011738777160645
      ],
      "type": "VEC3"
    },
    {
      "bufferView": 1,
      "byteOffset": 61256,
      "componentType": 5126,
      "count": 8,
      "max": [
        0.6236280202865601,
        0.375
      ],
      "min": [
        0.6074169874191284,
        0.2511640191078186
      ],
      "type": "VEC2"
    },
    {
      "bufferView": 0,
      "byteOffset": 55296,
      "componentType": 5125,
      "count": 18,
      "type": "SCALAR"
    },
    {
      "bufferView": 2,
      "byteOffset": 183960,
      "componentType": 5126,
      "count": 144,
      "max": [
        0.462909996509552,
        0.484127014875412,
        -0.6802549958229065
      ],
      "min": [
        -0.7311829924583435,
        -0.484127014875412,
        -0.9312289953231812
      ],
      "type": "VEC3"
    },
    {
      "bufferView": 2,
      "byteOffset": 185688,
      "componentType": 5126,
      "count": 144,
      "max": [
        0.9955994486808777,
        0.9343526363372803,
        0.998835027217865
      ],
      "min": [
        -0.9895573854446411,
        -0.9343526363372803,
        -0.9923043251037598
      ],
      "type": "VEC3"
    },
    {
      "bufferView": 1,
      "byteOffset": 61320,
      "componentType": 5126,
      "count": 144,
      "max": [
        0.0,
        1.0
      ],
      "min": [
        0.0,
        1.0
      ],
      "type": "VEC2"
    },
    {
      "bufferView": 0,
      "byteOffset": 55368,
      "componentType": 5125,
      "count": 216,
      "type": "SCALAR"
    },
    {
      "bufferView": 2,
      "byteOffset": 187416,
      "componentType": 5126,
      "count": 58,
      "max": [
        1.5118160247802734,
        0.518215000629425,
        -0.39872199296951294
      ],
      "min": [
        0.4752430021762848,
        -0.518215000629425,
        -0.8831130266189575
      ],
      "type": "VEC3"
    },
    {
      "bufferView": 2,
      "byteOffset": 188112,
      "componentType": 5126,
      "count": 58,
      "max": [
        0.87188321352005,
        0.49189090728759766,
        0.13661400973796844
      ],
      "min": [
        -0.9525691270828247,
        -0.49188748002052307,
        -0.9903304576873779
      ],
      "type": "VEC3"
    },
    {
      "bufferView": 1,
      "byteOffset": 62472,
      "componentType": 5126,
      "count": 58,
      "max": [
        0.6251630187034607,
        0.375
      ],
      "min": [
        0.44503799080848694,
        0.2498059868812561
      ],
      "type": "VEC2"
    },
    {
      "bufferView": 0,
      "byteOffset": 56232,
      "componentType": 5125,
      "count": 126,
      "type": "SCALAR"
    },
    {
      "bufferView": 2,
      "byteOffset": 188808,
      "componentType": 5126,
      "count": 2176,
      "max": [
        1.1876569986343384,
        0.5571309924125671,
        0.0018260000506415963
      ],
      "min": [
        -1.292214035987854,
        -0.557129979133606,
        -0.5040090084075928
      ],
      "type": "VEC3"
    },
    {
      "bufferView": 2,
      "byteOffset": 214920,
      "componentType": 5126,
      "count": 2176,
      "max": [
        1.0,
        0.9945801496505737,
        1.0
      ],
      "min": [
        -1.0,
        -0.9945782423019409,
        -1.0
      ],
      "type": "VEC3"
    },
    {
      "bufferView": 1,
      "byteOffset": 62936,
      "componentType": 5126,
      "count": 2176,
      "max": [
        0.0,
        1.0
      ],
      "min": [
        0.0,
        1.0
      ],
      "type": "VEC2"
    },
    {
      "bufferView": 0,
      "byteOffset": 56736,
      "componentType": 5125,
      "count": 12648,
      "type": "SCALAR"
    }
  ],
  "asset": {
    "extras": {
      "author": "danieladebimpe (https://sketchfab.com/danieladebimpe)",
      "license": "CC-BY-4.0 (http://creativecommons.org/licenses/by/4.0/)",
      "source": "https://sketchfab.com/3d-models/testla-8be730bf173541f886b5be3d5084a3d2",
      "title": "Testla"
    },
    "generator": "Sketchfab-15.5.0",
    "version": "2.0"
  },
  "bufferViews": [
    {
      "buffer": 0,
      "byteLength": 107328,
      "name": "floatBufferViews",
      "target": 34963
    },
    {
      "buffer": 0,
      "byteLength": 80344,
      "byteOffset": 107328,
      "byteStride": 8,
      "name": "floatBufferViews",
      "target": 34962
    },
    {
      "buffer": 0,
      "byteLength": 241032,
      "byteOffset": 187672,
      "byteStride": 12,
      "name": "floatBufferViews",
      "target": 34962
    }
  ],
  "buffers": [
    {
      "byteLength": 428704,
      "uri": "scene.bin"
    }
  ],
  "materials": [
    {
      "doubleSided": true,
      "name": "Material.004",
      "pbrMetallicRoughness": {
        "baseColorFactor": [
          0.8,
          0.8,
          0.8,
          1.0
        ],
        "metallicFactor": 0.0,
        "roughnessFactor": 0.4
      }
    },
    {
      "doubleSided": true,
      "name": "Material.005",
      "pbrMetallicRoughness": {
        "baseColorFactor": [
          0.0,
          0.0,
          0.0,
          1.0
        ],
        "metallicFactor": 0.165138,
        "roughnessFactor": 0.5
      }
    },
    {
      "doubleSided": true,
      "name": "Material.002",
      "pbrMetallicRoughness": {
        "baseColorFactor": [
          0.002831,
          0.004078,
          0.020791,
          1.0
        ],
        "roughnessFactor": 0.0733945
      }
    },
    {
      "doubleSided": true,
      "name": "Material.001",
      "pbrMetallicRoughness": {
        "baseColorFactor": [
          0.342775,
          0.342775,
          0.342775,
          1.0
        ],
        "roughnessFactor": 0.169725
      }
    },
    {
      "doubleSided": true,
      "name": "Window",
      "pbrMetallicRoughness": {
        "baseColorFactor": [
          0.0,
          0.0,
          0.0,
          1.0
        ],
        "roughnessFactor": 0.0
      }
    },
    {
      "doubleSided": true,
      "name": "Material.003",
      "pbrMetallicRoughness": {
        "baseColorFactor": [
          0.8,
          0.8,
          0.8,
          1.0
        ],
        "metallicFactor": 0.0,
        "roughnessFactor": 0.4
      }
    },
    {
      "doubleSided": true,
      "name": "Material.006",
      "pbrMetallicRoughness": {
        "baseColorFactor": [
          0.8,
          0.8,
          0.8,
          1.0
        ],
        "metallicFactor": 0.0,
        "roughnessFactor": 0.4
      }
    },
    {
      "doubleSided": true,
      "name": "Material.007",
      "pbrMetallicRoughness": {
        "baseColorFactor": [
          0.001241,
          0.001241,
          0.001241,
          1.0
        ],
        "metallicFactor": 0.779817,
        "roughnessFactor": 0.0321101
      }
    },
    {
      "doubleSided": true,
      "name": "Material.008",
      "pbrMetallicRoughness": {
        "baseColorFactor": [
          0.0,
          0.0,
          0.0,
          1.0
        ],
        "metallicFactor": 0.623853,
        "roughnessFactor": 0.555046
      }
    },
    {
      "doubleSided": true,
      "name": "Material.009",
      "pbrMetallicRoughness": {
        "baseColorFactor": [
          0.0,
          0.0,
          0.0,
          1.0
        ],
        "metallicFactor": 0.0,
        "roughnessFactor": 0.600917
      }
    }
  ],
  "meshes": [
    {
      "name": "Object_0",
      "primitives": [
        {
          "attributes": {
            "NORMAL": 1,
            "POSITION": 0,
            "TEXCOORD_0": 2
          },
          "indices": 3,
          "material": 0,
          "mode": 4
        }
      ]
    },
    {
      "name": "Object_1",
      "primitives": [
        {
          "attributes": {
            "NORMAL": 5,
            "POSITION": 4,
            "TEXCOORD_0": 6
          },
          "indices": 7,
          "material": 1,
          "mode": 4
        }
      ]
    },
    {
      "name": "Object_2",
      "primitives": [
        {
          "attributes": {
            "NORMAL": 9,
            "POSITION": 8,
            "TEXCOORD_0": 10
          },
          "indices": 11,
          "material": 1,
          "mode": 4
        }
      ]
    },
    {
      "name": "Object_3",
      "primitives": [
        {
          "attributes": {
            "NORMAL": 13,
            "POSITION": 12,
            "TEXCOORD_0": 14
          },
          "indices": 15,
          "material": 2,
          "mode": 4
        }
      ]
    },
    {
      "name": "Object_4",
      "primitives": [
        {
          "attributes": {
            "NORMAL": 17,
            "POSITION": 16,
            "TEXCOORD_0": 18
          },
          "indices": 19,
          "material": 3,
          "mode": 4
        }
      ]
    },
    {
      "name": "Object_5",
      "primitives": [
        {
          "attributes": {
            "NORMAL": 21,
            "POSITION": 20,
            "TEXCOORD_0": 22
          },
          "indices": 23,
          "material": 4,
          "mode": 4
        }
      ]
    },
    {
      "name": "Object_6",
      "primitives": [
        {
          "attributes": {
            "NORMAL": 25,
            "POSITION": 24,
            "TEXCOORD_0": 26
          },
          "indices": 27,
          "material": 5,
          "mode": 4
        }
      ]
    },
    {
      "name": "Object_7",
      "primitives": [
        {
          "attributes": {
            "NORMAL": 29,
            "POSITION": 28,
            "TEXCOORD_0": 30
          },
          "indices": 31,
          "material": 6,
          "mode": 4
        }
      ]
    },
    {
      "name": "Object_8",
      "primitives": [
        {
          "attributes": {
            "NORMAL": 33,
            "POSITION": 32,
            "TEXCOORD_0": 34
          },
          "indices": 35,
          "material": 7,
          "mode": 4
        }
      ]
    },
    {
      "name": "Object_9",
      "primitives": [
        {
          "attributes": {
            "NORMAL": 37,
            "POSITION": 36,
            "TEXCOORD_0": 38
          },
          "indices": 39,
          "material": 8,
          "mode": 4
        }
      ]
    },
    {
      "name": "Object_10",
      "primitives": [
        {
          "attributes": {
            "NORMAL": 41,
            "POSITION": 40,
            "TEXCOORD_0": 42
          },
          "indices": 43,
          "material": 9,
          "mode": 4
        }
      ]
    }
  ],
  "nodes": [
    {
      "children": [
        1
      ],
      "matrix": [
        1.0,
        0.0,
        0.0,
        0.0,
        0.0,
        2.220446049250313e-16,
        -1.0,
        0.0,
        0.0,
        1.0,
        2.220446049250313e-16,
        0.0,
        0.0,
        0.0,
        0.0,
        1.0
      ],
      "name": "Sketchfab_model"
    },
    {
      "children": [
        2
      ],
      "name": "root"
    },
    {
      "children": [
        3,
        5,
        7,
        9,
        11,
        18
      ],
      "matrix": [
        1.0,
        0.0,
        0.0,
        0.0,
        0.0,
        2.220446049250313e-16,
        1.0,
        0.0,
        0.0,
        -1.0,
        2.220446049250313e-16,
        0.0,
        0.0,
        0.0,
        0.0,
        1.0
      ],
      "name": "GLTF_SceneRootNode"
    },
    {
      "children": [
        4
      ],
      "matrix": [
        1.0,
        0.0,
        0.0,
        0.0,
        0.0,
        -3.371747936409264e-07,
        0.999999999999943,
        0.0,
        0.0,
        -0.999999999999943,
        -3.371747936409264e-07,
        0.0,
        0.0,
        0.0,
        0.0,
        1.0
      ],
      "name": "Plane.001_0"
    },
    {
      "mesh": 0,
      "name": "Object_4"
    },
    {
      "children": [
        6
      ],
      "matrix": [
        1.0,
        0.0,
        0.0,
        0.0,
        0.0,
        -3.371747936409264e-07,
        0.999999999999943,
        0.0,
        0.0,
        -0.999999999999943,
        -3.371747936409264e-07,
        0.0,
        0.0,
        0.0,
        0.0,
        1.0
      ],
      "name": "Plane_1"
    },
    {
      "mesh": 1,
      "name": "Object_6"
    },
    {
      "children": [
        8
      ],
      "matrix": [
        1.0,
        0.0,
        0.0,
        0.0,
        0.0,
        -3.371747936409264e-07,
        0.999999999999943,
        0.0,
        0.0,
        -0.999999999999943,
        -3.371747936409264e-07,
        0.0,
        0.0,
        0.0,
        0.0,
        1.0
      ],
      "name": "Cube.005_Cube.010_2"
    },
    {
      "mesh": 2,
      "name": "Object_8"
    },
    {
      "children": [
        10
      ],
      "matrix": [
        1.0,
        0.0,
        0.0,
        0.0,
        0.0,
        -3.371747936409264e-07,
        0.999999999999943,
        0.0,
        0.0,
        -0.999999999999943,
        -3.371747936409264e-07,
        0.0,
        0.0,
        0.0,
        0.0,
        1.0
      ],
      "name": "Cube.002_3"
    },
    {
      "mesh": 3,
      "name": "Object_10"
    },
    {
      "children": [
        12,
        13,
        14,
        15,
        16,
        17
      ],
      "matrix": [
        1.0,
        0.0,
        0.0,
        0.0,
        0.0,
        -3.371747936409264e-07,
        0.999999999999943,
        0.0,
        0.0,
        -0.999999999999943,
        -3.371747936409264e-07,
        0.0,
        0.0,
        0.0,
        0.0,
        1.0
      ],
      "name": "Cube.001_Cube.025_4"
    },
    {
      "mesh": 4,
      "name": "Object_12"
    },
    {
      "mesh": 5,
      "name": "Object_13"
    },
    {
      "mesh": 6,
      "name": "Object_14"
    },
    {
      "mesh": 7,
      "name": "Object_15"
    },
    {
      "mesh": 8,
      "name": "Object_16"
    },
    {
      "mesh": 9,
      "name": "Object_17"
    },
    {
      "children": [
        19
      ],
      "matrix": [
        1.0,
        0.0,
        0.0,
        0.0,
        0.0,
        -3.371747936409264e-07,
        0.999999999999943,
        0.0,
        0.0,
        -0.999999999999943,
        -3.371747936409264e-07,
        0.0,
        0.0,
        0.0,
        0.0,
        1.0
      ],
      "name": "Circle.002_Circle.003_5"
    },
    {
      "mesh": 10,
      "name": "Object_19"
    }
  ],
  "scene": 0,
  "scenes": [
    {
      "name": "Sketchfab_Scene",
      "nodes": [
        0
      ]
    }
  ]
}
